<svg width="112" height="25" viewBox="0 0 112 25" fill="none" xmlns="http://www.w3.org/2000/svg">
<g clip-path="url(#clip0_1_91)">
<path d="M18.2965 11.922C18.1421 11.9475 17.9878 11.9603 17.8335 11.9603C15.8722 11.9603 14.0459 12.5605 12.5219 13.5886C12.0332 11.3664 10.7792 9.41878 9.04297 8.04585C10.8435 6.87088 12.9013 6.04713 15.1198 5.67676C16.6181 7.46475 17.7177 9.59758 18.2965 11.922Z" fill="#161B45"/>
<path d="M11.9745 13.9791C11.6658 14.2217 11.3765 14.4708 11.1064 14.739C9.383 16.4503 8.30911 18.8194 8.30911 21.412C8.28982 22.2933 7.91685 23.0979 7.32524 23.6726C6.73364 24.2601 5.93626 24.6177 5.02956 24.6177C3.22902 24.6177 1.78215 23.1873 1.75 21.4184V21.3099C1.78858 15.9906 4.44438 11.2843 8.51489 8.41076C10.2833 9.74537 11.5501 11.7122 11.9745 13.9791ZM17.8327 5.44141C17.151 5.44141 16.4694 5.47972 15.8135 5.56912C17.2539 7.36989 18.3214 9.48355 18.8873 11.7824C20.1862 11.3482 21.1187 10.1349 21.1187 8.69811C21.1187 6.89096 19.6397 5.44141 17.8327 5.44141Z" fill="url(#paint0_linear_1_91)"/>
<path d="M18.7513 15.6769C18.7513 17.318 17.4202 18.6462 15.7804 18.6462C14.1085 18.6462 12.7388 17.3116 12.7388 15.6769C12.7388 14.9553 12.6617 14.2593 12.5073 13.5888C12.0186 11.3665 10.7647 9.4189 9.02842 8.04598C7.36292 6.73052 5.25372 5.9387 2.96446 5.9387C1.33111 5.9387 0 4.61047 0 2.96935C0 1.32823 1.33111 0 2.97089 0C7.84521 0 12.2179 2.20945 15.1052 5.67688C16.6164 7.46488 17.716 9.5977 18.2948 11.9285C18.597 13.1226 18.7513 14.3806 18.7513 15.6769Z" fill="url(#paint1_linear_1_91)"/>
<path d="M34.2861 12.4073C33.7138 11.6794 32.5627 11.3345 31.6946 11.3345C30.685 11.3345 29.2832 11.7879 29.2832 12.9948C29.2832 15.9322 36.7619 14.0421 36.7619 19.6934C36.7619 23.2949 33.8488 24.9999 30.4986 24.9999C28.4086 24.9999 26.576 24.3869 25.0391 22.9693L27.5855 20.1915C28.3186 21.1493 29.5147 21.7177 30.7043 21.7177C31.8747 21.7177 33.1801 21.1685 33.1801 20.0318C33.1801 17.0689 25.5664 18.6653 25.5664 13.2886C25.5664 9.84666 28.5694 8.0459 31.7589 8.0459C33.5916 8.0459 35.36 8.52483 36.7361 9.73172L34.2861 12.4073Z" fill="#161B45"/>
<path d="M42.5675 11.6086H37.9375V8.4668H50.7856V11.6086H46.1492V24.5907H42.5675V11.6086Z" fill="#161B45"/>
<path d="M52.5924 8.46094H58.8814C62.206 8.46094 65.0032 9.59759 65.0032 13.3588C65.0032 15.6129 63.7879 17.369 61.4922 17.7777L65.6206 24.5912H61.3314L57.9361 18.1416H56.1677V24.5912H52.5859V8.46094H52.5924ZM56.1742 15.1404H58.2834C59.5888 15.1404 61.2864 15.0957 61.2864 13.3396C61.2864 11.724 59.8203 11.4686 58.5084 11.4686H56.1677V15.1404H56.1742Z" fill="#161B45"/>
<path d="M73.7291 8.46094H76.6872L83.7543 24.5912H79.7159L78.3141 21.1749H72.0058L70.6554 24.5912H66.707L73.7291 8.46094ZM75.1053 13.1544L73.1311 18.1672H77.0987L75.1053 13.1544Z" fill="#161B45"/>
<path d="M95.0942 12.6568C94.3805 11.8139 93.3516 11.335 92.0205 11.335C89.3132 11.335 87.3198 13.5189 87.3198 16.5266C87.3198 19.5342 89.3132 21.7181 91.9111 21.7181C93.358 21.7181 94.5284 21.0796 95.2614 19.9876L98.2452 22.1971C96.8948 24.1128 94.5991 25.0004 92.3741 25.0004C87.3069 25.0004 83.6094 21.699 83.6094 16.5266C83.6094 11.3541 87.3005 8.05273 92.3741 8.05273C94.1875 8.05273 96.4832 8.66576 97.8593 10.4218L95.0942 12.6568Z" fill="#161B45"/>
<path d="M103.789 11.6086H99.1523V8.4668H112V11.6086H107.364V24.5907H103.782V11.6086H103.789Z" fill="#161B45"/>
</g>
<defs>
<linearGradient id="paint0_linear_1_91" x1="1.74492" y1="15.0289" x2="21.1178" y2="15.0289" gradientUnits="userSpaceOnUse">
<stop stop-color="#25D7FB"/>
<stop offset="1" stop-color="#DF8FEE"/>
</linearGradient>
<linearGradient id="paint1_linear_1_91" x1="0" y1="9.3235" x2="18.7542" y2="9.3235" gradientUnits="userSpaceOnUse">
<stop stop-color="#25D7FB"/>
<stop offset="1" stop-color="#DF8FEE"/>
</linearGradient>
<clipPath id="clip0_1_91">
<rect width="112" height="25" fill="white"/>
</clipPath>
</defs>
</svg>
